<svg xmlns="http://www.w3.org/2000/svg" xmlns:xlink="http://www.w3.org/1999/xlink" width="3200" zoomAndPan="magnify" viewBox="0 0 2400 824.999997" height="1100" preserveAspectRatio="xMidYMid meet" version="1.0"><defs><g/></defs><g fill="#000000" fill-opacity="1"><g transform="translate(75.192353, 645.675651)"><g><path d="M 199.96875 -466.578125 L 279.953125 -466.578125 L 466.578125 0 L 366.59375 0 L 323.28125 -106.640625 L 116.640625 -106.640625 L 73.3125 0 L 6.671875 0 Z M 303.28125 -163.296875 L 223.296875 -363.265625 L 219.953125 -363.265625 L 139.96875 -163.296875 Z M 303.28125 -163.296875 "/></g></g></g><g fill="#000000" fill-opacity="1"><g transform="translate(521.778101, 645.675651)"><g><path d="M 46.65625 -479.90625 L 133.3125 -479.90625 L 133.3125 0 L 46.65625 0 Z M 46.65625 -479.90625 "/></g></g></g><g fill="#000000" fill-opacity="1"><g transform="translate(675.083419, 645.675651)"><g><path d="M 66.65625 -276.609375 L 10 -276.609375 L 10 -326.609375 L 66.65625 -326.609375 L 66.65625 -346.609375 C 66.65625 -365.710938 69.65625 -383.257812 75.65625 -399.25 C 81.65625 -415.25 90.207031 -428.914062 101.3125 -440.25 C 112.425781 -451.582031 125.757812 -460.46875 141.3125 -466.90625 C 156.863281 -473.351562 174.191406 -476.578125 193.296875 -476.578125 C 211.960938 -476.578125 227.847656 -473.910156 240.953125 -468.578125 C 254.066406 -463.242188 265.066406 -457.46875 273.953125 -451.25 C 284.171875 -443.695312 292.835938 -435.476562 299.953125 -426.59375 L 276.609375 -399.921875 C 271.722656 -406.148438 266.171875 -411.707031 259.953125 -416.59375 C 254.617188 -420.59375 248.0625 -424.367188 240.28125 -427.921875 C 232.507812 -431.472656 223.515625 -433.25 213.296875 -433.25 C 196.410156 -433.25 182.191406 -426.359375 170.640625 -412.578125 C 159.085938 -398.804688 153.3125 -376.816406 153.3125 -346.609375 L 153.3125 -326.609375 L 253.28125 -326.609375 L 243.296875 -276.609375 L 153.3125 -276.609375 L 153.3125 0 L 66.65625 0 Z M 66.65625 -276.609375 "/></g></g></g><g fill="#000000" fill-opacity="1"><g transform="translate(911.70699, 645.675651)"><g><path d="M 43.328125 -246.625 C 43.328125 -261.726562 42.769531 -274.722656 41.65625 -285.609375 C 40.550781 -296.503906 39.332031 -305.503906 38 -312.609375 C 36.21875 -320.609375 34.660156 -327.492188 33.328125 -333.265625 L 119.984375 -333.265625 C 120.867188 -327.941406 121.976562 -322.832031 123.3125 -317.9375 C 124.195312 -313.5 124.972656 -309.164062 125.640625 -304.9375 C 126.304688 -300.71875 126.640625 -296.832031 126.640625 -293.28125 L 129.984375 -293.28125 C 137.085938 -302.164062 145.75 -310.382812 155.96875 -317.9375 C 164.851562 -324.164062 175.847656 -329.941406 188.953125 -335.265625 C 202.066406 -340.597656 217.957031 -343.265625 236.625 -343.265625 C 243.289062 -343.265625 249.289062 -342.707031 254.625 -341.59375 C 259.957031 -340.488281 264.398438 -339.269531 267.953125 -337.9375 C 272.398438 -336.15625 276.398438 -334.597656 279.953125 -333.265625 L 263.28125 -279.953125 L 249.953125 -283.28125 C 245.515625 -284.164062 240.515625 -284.941406 234.953125 -285.609375 C 229.398438 -286.273438 223.289062 -286.609375 216.625 -286.609375 C 205.070312 -286.609375 194.070312 -284.5 183.625 -280.28125 C 173.1875 -276.0625 163.96875 -271.507812 155.96875 -266.625 C 146.632812 -260.84375 137.972656 -254.175781 129.984375 -246.625 L 129.984375 0 L 43.328125 0 Z M 43.328125 -246.625 "/></g></g></g><g fill="#000000" fill-opacity="1"><g transform="translate(1164.994301, 645.675651)"><g><path d="M 213.296875 10 C 185.742188 10 160.410156 5.332031 137.296875 -4 C 114.191406 -13.332031 94.195312 -25.992188 77.3125 -41.984375 C 60.425781 -57.984375 47.207031 -76.757812 37.65625 -98.3125 C 28.101562 -119.863281 23.328125 -142.640625 23.328125 -166.640625 C 23.328125 -191.523438 27.878906 -214.742188 36.984375 -236.296875 C 46.097656 -257.847656 58.65625 -276.507812 74.65625 -292.28125 C 90.65625 -308.050781 109.648438 -320.488281 131.640625 -329.59375 C 153.640625 -338.707031 177.523438 -343.265625 203.296875 -343.265625 C 229.066406 -343.265625 252.945312 -338.820312 274.9375 -329.9375 C 296.9375 -321.050781 315.9375 -308.832031 331.9375 -293.28125 C 347.9375 -277.726562 360.488281 -259.617188 369.59375 -238.953125 C 378.707031 -218.296875 383.265625 -196.410156 383.265625 -173.296875 C 383.265625 -168.859375 383.039062 -164.859375 382.59375 -161.296875 C 382.15625 -157.742188 381.710938 -154.632812 381.265625 -151.96875 C 380.816406 -148.863281 380.375 -145.976562 379.9375 -143.3125 L 113.3125 -143.3125 C 115.09375 -127.3125 119.09375 -112.644531 125.3125 -99.3125 C 131.53125 -85.976562 139.640625 -74.421875 149.640625 -64.640625 C 159.640625 -54.867188 171.191406 -47.207031 184.296875 -41.65625 C 197.410156 -36.101562 211.519531 -33.328125 226.625 -33.328125 C 243.507812 -33.328125 258.394531 -36.4375 271.28125 -42.65625 C 284.164062 -48.875 295.273438 -55.765625 304.609375 -63.328125 C 315.273438 -71.765625 324.828125 -81.757812 333.265625 -93.3125 L 359.9375 -69.984375 C 350.15625 -54.878906 338.15625 -41.550781 323.9375 -30 C 311.9375 -19.769531 296.828125 -10.546875 278.609375 -2.328125 C 260.390625 5.890625 238.617188 10 213.296875 10 Z M 293.28125 -193.296875 C 293.28125 -209.296875 290.722656 -223.847656 285.609375 -236.953125 C 280.503906 -250.066406 273.835938 -261.285156 265.609375 -270.609375 C 257.390625 -279.941406 247.835938 -287.164062 236.953125 -292.28125 C 226.066406 -297.394531 214.847656 -299.953125 203.296875 -299.953125 C 191.742188 -299.953125 180.523438 -297.394531 169.640625 -292.28125 C 158.753906 -287.164062 149.085938 -279.941406 140.640625 -270.609375 C 132.203125 -261.285156 125.535156 -250.066406 120.640625 -236.953125 C 115.753906 -223.847656 113.3125 -209.296875 113.3125 -193.296875 Z M 293.28125 -193.296875 "/></g></g></g><g fill="#000000" fill-opacity="1"><g transform="translate(1541.592707, 645.675651)"><g><path d="M 189.96875 146.640625 C 164.632812 146.640625 142.96875 142.75 124.96875 134.96875 C 106.976562 127.195312 92.207031 118.421875 80.65625 108.640625 C 66.875 97.085938 55.539062 84.203125 46.65625 69.984375 L 73.3125 46.65625 C 80.875 57.769531 89.765625 67.320312 99.984375 75.3125 C 108.867188 82.425781 119.644531 88.867188 132.3125 94.640625 C 144.976562 100.421875 159.753906 103.3125 176.640625 103.3125 C 193.078125 103.3125 208.296875 100.535156 222.296875 94.984375 C 236.296875 89.429688 248.289062 81.320312 258.28125 70.65625 C 268.28125 59.988281 276.054688 46.988281 281.609375 31.65625 C 287.171875 16.332031 289.953125 -0.882812 289.953125 -20 L 289.953125 -36.65625 L 286.609375 -36.65625 C 279.054688 -27.769531 270.171875 -19.992188 259.953125 -13.328125 C 251.066406 -7.109375 240.289062 -1.664062 227.625 3 C 214.957031 7.664062 200.179688 10 183.296875 10 C 161.523438 10 141.972656 6.882812 124.640625 0.65625 C 107.316406 -5.5625 92.65625 -14.222656 80.65625 -25.328125 C 68.65625 -36.441406 59.429688 -49.550781 52.984375 -64.65625 C 46.546875 -79.757812 43.328125 -95.976562 43.328125 -113.3125 L 43.328125 -333.265625 L 129.984375 -333.265625 L 129.984375 -113.3125 C 129.984375 -87.976562 136.757812 -68.3125 150.3125 -54.3125 C 163.863281 -40.320312 181.523438 -33.328125 203.296875 -33.328125 C 216.628906 -33.328125 228.625 -36.101562 239.28125 -41.65625 C 249.945312 -47.207031 259.0625 -53.316406 266.625 -59.984375 C 275.0625 -67.984375 282.835938 -76.875 289.953125 -86.65625 L 289.953125 -333.265625 L 376.59375 -333.265625 L 376.59375 -20 C 376.59375 1.78125 371.816406 22.664062 362.265625 42.65625 C 352.710938 62.65625 339.601562 80.316406 322.9375 95.640625 C 306.28125 110.972656 286.617188 123.304688 263.953125 132.640625 C 241.285156 141.972656 216.625 146.640625 189.96875 146.640625 Z M 189.96875 146.640625 "/></g></g></g><g fill="#000000" fill-opacity="1"><g transform="translate(1934.854807, 645.675651)"><g><path d="M 153.3125 10 C 131.53125 10 112.195312 7.109375 95.3125 1.328125 C 78.425781 -4.441406 64.09375 -12.328125 52.3125 -22.328125 C 40.539062 -32.328125 31.65625 -43.988281 25.65625 -57.3125 C 19.65625 -70.644531 16.65625 -84.867188 16.65625 -99.984375 C 16.65625 -116.421875 19.65625 -131.859375 25.65625 -146.296875 C 31.65625 -160.742188 40.539062 -173.078125 52.3125 -183.296875 C 64.09375 -193.515625 78.425781 -201.625 95.3125 -207.625 C 112.195312 -213.625 131.53125 -216.625 153.3125 -216.625 C 168.414062 -216.625 182.410156 -215.289062 195.296875 -212.625 C 208.179688 -209.957031 219.515625 -206.847656 229.296875 -203.296875 C 240.847656 -199.296875 251.066406 -194.851562 259.953125 -189.96875 L 259.953125 -206.625 C 259.953125 -236.84375 252.175781 -259.953125 236.625 -275.953125 C 221.070312 -291.953125 199.960938 -299.953125 173.296875 -299.953125 C 158.191406 -299.953125 144.75 -297.503906 132.96875 -292.609375 C 121.195312 -287.722656 111.085938 -282.390625 102.640625 -276.609375 C 92.867188 -269.503906 84.207031 -261.726562 76.65625 -253.28125 L 49.984375 -276.609375 C 58.878906 -289.054688 69.988281 -300.164062 83.3125 -309.9375 C 94.875 -318.382812 109.097656 -326.050781 125.984375 -332.9375 C 142.867188 -339.820312 163.085938 -343.265625 186.640625 -343.265625 C 211.515625 -343.265625 233.835938 -339.707031 253.609375 -332.59375 C 273.390625 -325.488281 290.164062 -315.828125 303.9375 -303.609375 C 317.71875 -291.390625 328.273438 -276.945312 335.609375 -260.28125 C 342.941406 -243.625 346.609375 -225.738281 346.609375 -206.625 L 346.609375 -86.65625 C 346.609375 -71.539062 347.050781 -58.539062 347.9375 -47.65625 C 348.820312 -36.769531 349.929688 -27.769531 351.265625 -20.65625 C 353.046875 -12.664062 354.828125 -5.78125 356.609375 0 L 269.953125 0 C 268.617188 -4.882812 267.507812 -9.769531 266.625 -14.65625 C 265.726562 -18.65625 264.945312 -22.988281 264.28125 -27.65625 C 263.613281 -32.320312 263.28125 -36.4375 263.28125 -40 L 259.953125 -40 C 252.835938 -30.664062 244.171875 -22.21875 233.953125 -14.65625 C 225.066406 -8.4375 214.066406 -2.773438 200.953125 2.328125 C 187.847656 7.441406 171.96875 10 153.3125 10 Z M 173.296875 -33.328125 C 186.628906 -33.328125 198.628906 -36.101562 209.296875 -41.65625 C 219.960938 -47.207031 229.070312 -53.316406 236.625 -59.984375 C 245.0625 -67.984375 252.835938 -76.875 259.953125 -86.65625 L 259.953125 -149.96875 C 252.835938 -153.96875 245.0625 -157.742188 236.625 -161.296875 C 229.070312 -164.410156 219.960938 -167.1875 209.296875 -169.625 C 198.628906 -172.070312 186.628906 -173.296875 173.296875 -173.296875 C 154.640625 -173.296875 138.863281 -166.519531 125.96875 -152.96875 C 113.082031 -139.414062 106.640625 -121.753906 106.640625 -99.984375 C 106.640625 -81.316406 113.082031 -65.539062 125.96875 -52.65625 C 138.863281 -39.769531 154.640625 -33.328125 173.296875 -33.328125 Z M 173.296875 -33.328125 "/></g></g></g></svg>