<svg xmlns="http://www.w3.org/2000/svg" xmlns:xlink="http://www.w3.org/1999/xlink" width="3500" zoomAndPan="magnify" viewBox="0 0 2625 749.999995" height="1000" preserveAspectRatio="xMidYMid meet" version="1.0"><defs><g/><clipPath id="41ad57eb61"><rect x="0" width="2478" y="0" height="619"/></clipPath></defs><g transform="matrix(1, 0, 0, 1, 74, 31)"><g clip-path="url(#41ad57eb61)"><g fill="#000000" fill-opacity="1"><g transform="translate(1.017103, 492.823818)"><g><path d="M 28.953125 0 L 28.953125 -8.625 C 39.222656 -11.914062 45.898438 -18.796875 48.984375 -29.265625 C 52.066406 -39.742188 53.609375 -56.070312 53.609375 -78.25 L 53.609375 -353.046875 C 53.609375 -375.222656 52.066406 -391.546875 48.984375 -402.015625 C 45.898438 -412.492188 39.222656 -419.375 28.953125 -422.65625 L 28.953125 -431.28125 L 143.5625 -431.28125 L 143.5625 -422.65625 C 133.289062 -419.375 126.613281 -412.492188 123.53125 -402.015625 C 120.445312 -391.546875 118.90625 -375.222656 118.90625 -353.046875 L 118.90625 -208.25 L 268.625 -361.671875 C 288.34375 -381.796875 299.023438 -396.890625 300.671875 -406.953125 C 302.316406 -417.015625 296.566406 -423.070312 283.421875 -425.125 L 283.421875 -431.28125 L 380.15625 -431.28125 L 380.15625 -422.65625 C 367.832031 -419.375 354.582031 -414.648438 340.40625 -408.484375 C 326.238281 -402.328125 311.347656 -391.238281 295.734375 -375.21875 L 164.5 -240.90625 L 179.90625 -241.515625 C 202.90625 -242.753906 221.898438 -241.523438 236.890625 -237.828125 C 251.890625 -234.128906 264.421875 -227.453125 274.484375 -217.796875 C 284.546875 -208.148438 293.679688 -195.109375 301.890625 -178.671875 C 310.109375 -162.242188 318.941406 -141.707031 328.390625 -117.0625 C 340.710938 -85.84375 350.363281 -62.53125 357.34375 -47.125 C 364.332031 -31.726562 370.394531 -21.460938 375.53125 -16.328125 C 380.664062 -11.191406 386.519531 -8.625 393.09375 -8.625 C 394.726562 -8.625 396.265625 -8.625 397.703125 -8.625 C 399.140625 -8.625 400.679688 -8.828125 402.328125 -9.234375 L 402.328125 0 C 395.347656 1.644531 388.265625 2.773438 381.078125 3.390625 C 373.890625 4.003906 367.007812 4.3125 360.4375 4.3125 C 347.695312 4.3125 337.21875 2.972656 329 0.296875 C 320.789062 -2.367188 313.707031 -7.296875 307.75 -14.484375 C 301.800781 -21.671875 295.640625 -32.242188 289.265625 -46.203125 C 282.898438 -60.171875 274.992188 -78.453125 265.546875 -101.046875 C 255.691406 -124.867188 247.476562 -145.097656 240.90625 -161.734375 C 234.332031 -178.367188 227.863281 -191.71875 221.5 -201.78125 C 215.132812 -211.84375 207.632812 -219.132812 199 -223.65625 C 190.375 -228.175781 179.082031 -230.4375 165.125 -230.4375 L 154.03125 -230.4375 L 118.90625 -194.078125 L 118.90625 -78.25 C 118.90625 -56.070312 120.445312 -39.742188 123.53125 -29.265625 C 126.613281 -18.796875 133.289062 -11.914062 143.5625 -8.625 L 143.5625 0 Z M 28.953125 0 "/></g></g></g><g fill="#000000" fill-opacity="1"><g transform="translate(398.413984, 492.823818)"><g><path d="M 183.609375 6.15625 C 163.484375 6.15625 143.664062 3.179688 124.15625 -2.765625 C 104.644531 -8.722656 86.976562 -17.96875 71.15625 -30.5 C 55.34375 -43.03125 42.710938 -58.84375 33.265625 -77.9375 C 23.816406 -97.039062 19.09375 -119.734375 19.09375 -146.015625 C 19.09375 -171.078125 23.609375 -193.773438 32.640625 -214.109375 C 41.679688 -234.441406 54.003906 -251.894531 69.609375 -266.46875 C 85.222656 -281.050781 102.890625 -292.347656 122.609375 -300.359375 C 142.328125 -308.367188 162.660156 -312.375 183.609375 -312.375 C 202.910156 -312.375 222.109375 -309.5 241.203125 -303.75 C 260.304688 -298 277.96875 -288.859375 294.1875 -276.328125 C 310.414062 -263.804688 323.359375 -247.890625 333.015625 -228.578125 C 342.671875 -209.273438 347.5 -186.066406 347.5 -158.953125 C 347.5 -132.671875 342.460938 -109.257812 332.390625 -88.71875 C 322.328125 -68.1875 309.179688 -50.9375 292.953125 -36.96875 C 276.734375 -23 258.972656 -12.316406 239.671875 -4.921875 C 220.367188 2.460938 201.679688 6.15625 183.609375 6.15625 Z M 80.71875 -192.234375 C 80.71875 -174.160156 83.382812 -154.441406 88.71875 -133.078125 C 94.0625 -111.722656 101.96875 -91.492188 112.4375 -72.390625 C 122.914062 -53.296875 135.957031 -37.6875 151.5625 -25.5625 C 167.175781 -13.445312 185.046875 -7.390625 205.171875 -7.390625 C 225.296875 -7.390625 241.210938 -12.523438 252.921875 -22.796875 C 264.628906 -33.066406 272.945312 -46.207031 277.875 -62.21875 C 282.800781 -78.238281 285.265625 -94.878906 285.265625 -112.140625 C 285.265625 -131.847656 282.082031 -152.894531 275.71875 -175.28125 C 269.351562 -197.664062 260.316406 -218.71875 248.609375 -238.4375 C 236.898438 -258.15625 222.828125 -273.867188 206.390625 -285.578125 C 189.960938 -297.285156 171.894531 -302.109375 152.1875 -300.046875 C 134.519531 -298.410156 120.445312 -292.351562 109.96875 -281.875 C 99.5 -271.40625 92.003906 -258.257812 87.484375 -242.4375 C 82.972656 -226.625 80.71875 -209.890625 80.71875 -192.234375 Z M 80.71875 -192.234375 "/></g></g></g><g fill="#000000" fill-opacity="1"><g transform="translate(771.166213, 492.823818)"><g><path d="M 17.25 0 L 17.25 -8.625 C 27.519531 -11.914062 34.191406 -18.796875 37.265625 -29.265625 C 40.347656 -39.742188 41.890625 -56.070312 41.890625 -78.25 L 41.890625 -219.953125 C 41.890625 -238.023438 39.734375 -249.9375 35.421875 -255.6875 C 31.109375 -261.4375 25.050781 -265.957031 17.25 -269.25 L 17.25 -277.875 L 98.578125 -313.609375 L 104.734375 -308.671875 L 104.734375 -256.921875 C 121.578125 -270.890625 140.882812 -283.625 162.65625 -295.125 C 184.425781 -306.625 207.222656 -312.375 231.046875 -312.375 C 259.390625 -312.375 282.289062 -304.46875 299.75 -288.65625 C 317.207031 -272.84375 325.9375 -246.863281 325.9375 -210.71875 L 325.9375 -78.25 C 325.9375 -56.070312 327.472656 -39.742188 330.546875 -29.265625 C 333.628906 -18.796875 340.304688 -11.914062 350.578125 -8.625 L 350.578125 0 L 238.4375 0 L 238.4375 -8.625 C 248.707031 -11.914062 255.378906 -18.796875 258.453125 -29.265625 C 261.535156 -39.742188 263.078125 -56.070312 263.078125 -78.25 L 263.078125 -199.625 C 263.078125 -227.550781 257.222656 -249.21875 245.515625 -264.625 C 233.816406 -280.03125 216.46875 -287.734375 193.46875 -287.734375 C 179.09375 -287.734375 164.921875 -284.238281 150.953125 -277.25 C 136.984375 -270.269531 121.578125 -260.003906 104.734375 -246.453125 L 104.734375 -78.25 C 104.734375 -56.070312 106.273438 -39.742188 109.359375 -29.265625 C 112.441406 -18.796875 119.117188 -11.914062 129.390625 -8.625 L 129.390625 0 Z M 17.25 0 "/></g></g></g><g fill="#000000" fill-opacity="1"><g transform="translate(1134.060463, 492.823818)"><g><path d="M 136.15625 4.921875 C 113.570312 4.921875 92.421875 2.046875 72.703125 -3.703125 C 52.984375 -9.453125 37.171875 -16.226562 25.265625 -24.03125 L 19.09375 -104.734375 L 25.265625 -105.96875 C 38.410156 -76.394531 55.765625 -52.265625 77.328125 -33.578125 C 98.890625 -14.890625 123.429688 -5.335938 150.953125 -4.921875 C 170.253906 -4.515625 185.550781 -9.753906 196.84375 -20.640625 C 208.144531 -31.523438 213.796875 -43.953125 213.796875 -57.921875 C 213.796875 -77.628906 206.296875 -92.410156 191.296875 -102.265625 C 176.304688 -112.128906 155.460938 -121.171875 128.765625 -129.390625 C 107.410156 -135.960938 88.828125 -142.84375 73.015625 -150.03125 C 57.203125 -157.21875 45.082031 -166.457031 36.65625 -177.75 C 28.238281 -189.050781 24.03125 -203.941406 24.03125 -222.421875 C 24.03125 -238.023438 28.238281 -252.707031 36.65625 -266.46875 C 45.082031 -280.226562 58.125 -291.316406 75.78125 -299.734375 C 93.445312 -308.160156 116.242188 -312.375 144.171875 -312.375 C 161.835938 -312.375 179.296875 -310.9375 196.546875 -308.0625 C 213.796875 -305.1875 227.554688 -301.488281 237.828125 -296.96875 L 240.90625 -229.203125 L 233.515625 -227.96875 C 223.242188 -249.738281 208.96875 -267.8125 190.6875 -282.1875 C 172.40625 -296.5625 151.972656 -303.75 129.390625 -303.75 C 110.078125 -303.75 94.566406 -299.226562 82.859375 -290.1875 C 71.160156 -281.15625 65.3125 -270.066406 65.3125 -256.921875 C 65.3125 -239.671875 72.804688 -226.425781 87.796875 -217.1875 C 102.785156 -207.945312 124.039062 -198.601562 151.5625 -189.15625 C 168 -183.8125 184.125 -177.851562 199.9375 -171.28125 C 215.75 -164.707031 228.890625 -155.566406 239.359375 -143.859375 C 249.835938 -132.160156 255.078125 -115.835938 255.078125 -94.890625 C 255.078125 -79.273438 251.378906 -63.765625 243.984375 -48.359375 C 236.585938 -32.960938 224.265625 -20.234375 207.015625 -10.171875 C 189.765625 -0.109375 166.144531 4.921875 136.15625 4.921875 Z M 136.15625 4.921875 "/></g></g></g><g fill="#000000" fill-opacity="1"><g transform="translate(1410.081916, 492.823818)"><g><path d="M 17.25 0 L 17.25 -8.625 C 27.519531 -11.914062 34.191406 -18.796875 37.265625 -29.265625 C 40.347656 -39.742188 41.890625 -56.070312 41.890625 -78.25 L 41.890625 -219.953125 C 41.890625 -238.023438 39.734375 -249.9375 35.421875 -255.6875 C 31.109375 -261.4375 25.050781 -265.957031 17.25 -269.25 L 17.25 -277.875 L 98.578125 -313.609375 L 104.734375 -308.671875 L 104.734375 -78.25 C 104.734375 -56.070312 106.273438 -39.742188 109.359375 -29.265625 C 112.441406 -18.796875 119.117188 -11.914062 129.390625 -8.625 L 129.390625 0 Z M 27.71875 -376.453125 C 27.71875 -388.359375 31.828125 -398.421875 40.046875 -406.640625 C 48.265625 -414.859375 58.125 -418.96875 69.625 -418.96875 C 81.945312 -418.96875 92.007812 -414.859375 99.8125 -406.640625 C 107.613281 -398.421875 111.515625 -388.359375 111.515625 -376.453125 C 111.515625 -364.953125 107.507812 -355.09375 99.5 -346.875 C 91.488281 -338.664062 81.53125 -334.5625 69.625 -334.5625 C 58.125 -334.5625 48.265625 -338.664062 40.046875 -346.875 C 31.828125 -355.09375 27.71875 -364.953125 27.71875 -376.453125 Z M 27.71875 -376.453125 "/></g></g></g><g fill="#000000" fill-opacity="1"><g transform="translate(1557.95049, 492.823818)"><g><path d="M 22.1875 118.90625 C 9.445312 119.320312 -1.234375 117.679688 -9.859375 113.984375 C -18.484375 110.285156 -22.796875 105.359375 -22.796875 99.203125 C -22.796875 95.085938 -21.050781 90.050781 -17.5625 84.09375 C -14.070312 78.144531 -8.832031 72.703125 -1.84375 67.765625 C 5.132812 62.835938 13.347656 60.375 22.796875 60.375 C 31.828125 60.375 44.046875 61.503906 59.453125 63.765625 C 74.859375 66.023438 90.570312 68.59375 106.59375 71.46875 C 113.988281 63.25 121.378906 53.285156 128.765625 41.578125 C 136.160156 29.878906 143.144531 17.046875 149.71875 3.078125 L 46.203125 -235.96875 C 37.578125 -256.507812 29.15625 -271.398438 20.9375 -280.640625 C 12.726562 -289.878906 5.132812 -296.144531 -1.84375 -299.4375 L -1.84375 -308.0625 L 107.203125 -308.0625 L 107.203125 -299.4375 C 96.929688 -296.144531 93.234375 -289.976562 96.109375 -280.9375 C 98.984375 -271.90625 104.941406 -257.125 113.984375 -236.59375 L 184.21875 -76.40625 L 253.234375 -235.96875 C 261.859375 -256.507812 265.550781 -271.601562 264.3125 -281.25 C 263.082031 -290.90625 257.128906 -296.96875 246.453125 -299.4375 L 246.453125 -308.0625 L 316.6875 -308.0625 L 316.6875 -299.4375 C 307.65625 -296.144531 298.722656 -289.976562 289.890625 -280.9375 C 281.054688 -271.90625 272.117188 -257.125 263.078125 -236.59375 L 168.8125 -18.484375 C 153.207031 17.253906 137.804688 45.082031 122.609375 65 C 107.410156 84.925781 91.59375 98.789062 75.15625 106.59375 C 58.726562 114.394531 41.070312 118.5 22.1875 118.90625 Z M 22.1875 118.90625 "/></g></g></g><g fill="#000000" fill-opacity="1"><g transform="translate(1869.090826, 492.823818)"><g><path d="M 165.125 6.15625 C 147.875 6.15625 130.722656 3.078125 113.671875 -3.078125 C 96.628906 -9.242188 80.921875 -18.488281 66.546875 -30.8125 C 52.171875 -43.132812 40.664062 -58.535156 32.03125 -77.015625 C 23.40625 -95.492188 19.09375 -117.265625 19.09375 -142.328125 C 19.09375 -168.609375 23.710938 -192.222656 32.953125 -213.171875 C 42.203125 -234.128906 54.628906 -252 70.234375 -266.78125 C 85.847656 -281.570312 103.203125 -292.867188 122.296875 -300.671875 C 141.398438 -308.472656 161.015625 -312.375 181.140625 -312.375 C 209.066406 -312.375 232.476562 -306.828125 251.375 -295.734375 C 270.269531 -284.648438 284.539062 -270.6875 294.1875 -253.84375 C 303.84375 -237 308.671875 -219.539062 308.671875 -201.46875 L 75.171875 -201.46875 C 74.753906 -198.1875 74.441406 -194.898438 74.234375 -191.609375 C 74.035156 -188.328125 73.9375 -185.039062 73.9375 -181.75 C 73.9375 -155.050781 79.171875 -131.226562 89.640625 -110.28125 C 100.117188 -89.332031 114.90625 -73.003906 134 -61.296875 C 153.101562 -49.597656 175.59375 -43.75 201.46875 -43.75 C 224.46875 -43.75 244.800781 -48.265625 262.46875 -57.296875 C 280.132812 -66.335938 295.332031 -78.046875 308.0625 -92.421875 L 313.609375 -86.25 C 304.160156 -71.875 292.453125 -57.601562 278.484375 -43.4375 C 264.523438 -29.269531 248.097656 -17.460938 229.203125 -8.015625 C 210.304688 1.429688 188.945312 6.15625 165.125 6.15625 Z M 75.78125 -210.09375 L 246.453125 -210.09375 C 243.984375 -226.9375 238.742188 -242.238281 230.734375 -256 C 222.722656 -269.757812 212.863281 -280.742188 201.15625 -288.953125 C 189.457031 -297.171875 176.421875 -301.28125 162.046875 -301.28125 C 144.785156 -301.695312 130.195312 -297.59375 118.28125 -288.96875 C 106.375 -280.34375 96.929688 -269.046875 89.953125 -255.078125 C 82.972656 -241.109375 78.25 -226.113281 75.78125 -210.09375 Z M 75.78125 -210.09375 "/></g></g></g><g fill="#000000" fill-opacity="1"><g transform="translate(2198.098565, 492.823818)"><g><path d="M 17.25 0 L 17.25 -8.625 C 27.519531 -11.914062 34.191406 -18.796875 37.265625 -29.265625 C 40.347656 -39.742188 41.890625 -56.070312 41.890625 -78.25 L 41.890625 -219.953125 C 41.890625 -238.023438 39.734375 -249.9375 35.421875 -255.6875 C 31.109375 -261.4375 25.050781 -265.957031 17.25 -269.25 L 17.25 -277.875 L 98.578125 -313.609375 L 104.734375 -308.671875 L 104.734375 -234.125 C 114.179688 -256.300781 129.175781 -274.375 149.71875 -288.34375 C 161.21875 -296.5625 173.023438 -302.617188 185.140625 -306.515625 C 197.265625 -310.421875 210.71875 -312.375 225.5 -312.375 C 236.175781 -312.375 245.414062 -310.9375 253.21875 -308.0625 C 261.03125 -305.1875 264.9375 -300.460938 264.9375 -293.890625 C 264.9375 -289.367188 263.394531 -283.925781 260.3125 -277.5625 C 257.226562 -271.195312 252.601562 -265.648438 246.4375 -260.921875 C 240.28125 -256.203125 232.476562 -253.84375 223.03125 -253.84375 C 214.40625 -253.84375 203.828125 -255.378906 191.296875 -258.453125 C 178.773438 -261.535156 162.65625 -266.160156 142.9375 -272.328125 C 135.132812 -265.753906 127.019531 -256.097656 118.59375 -243.359375 C 110.175781 -230.628906 105.554688 -216.460938 104.734375 -200.859375 L 104.734375 -78.25 C 104.734375 -56.070312 106.273438 -39.742188 109.359375 -29.265625 C 112.441406 -18.796875 119.117188 -11.914062 129.390625 -8.625 L 129.390625 0 Z M 17.25 0 "/></g></g></g></g></g></svg>